<svg xmlns="http://www.w3.org/2000/svg" width="1534" height="1534" viewBox="0 0 1534 1534" version="1.1"><path d="M 1103.110 104.396 L 1100.720 105.720 1099.396 108.110 L 1098.071 110.500 1098.035 210.800 L 1098 311.099 1099.425 313.855 L 1100.850 316.611 1103.472 317.805 L 1106.094 319 1206.097 319 L 1306.099 319 1308.855 317.575 L 1311.611 316.150 1312.805 313.528 L 1314 310.906 1314 211 L 1314 111.094 1312.805 108.472 L 1311.611 105.850 1308.855 104.425 L 1306.099 103 1205.800 103.035 L 1105.500 103.071 1103.110 104.396 M 1108 211 L 1108 309 1206 309 L 1304 309 1304 211 L 1304 113 1206 113 L 1108 113 1108 211 M 1192.601 138.594 L 1186.702 140.021 1180.101 143.261 L 1173.500 146.500 1166.954 153 L 1160.408 159.500 1156.676 166.700 L 1152.944 173.899 1150.847 181.700 L 1148.749 189.500 1148.728 204 L 1148.706 218.500 1150.828 226.314 L 1152.951 234.128 1156.195 240.314 L 1159.439 246.500 1166.470 253.611 L 1173.500 260.722 1179.740 263.870 L 1185.979 267.018 1192.240 268.494 L 1198.500 269.970 1207.500 269.970 L 1216.500 269.970 1222.760 268.494 L 1229.021 267.018 1235.209 263.895 L 1241.397 260.771 1246.645 255.395 L 1251.893 250.020 1255.947 241.760 L 1260 233.500 1260.250 231.079 L 1260.500 228.658 1248.500 224.845 L 1236.500 221.033 1235.933 221.016 L 1235.365 221 1233.676 226.360 L 1231.986 231.720 1229.120 235.987 L 1226.254 240.254 1222.062 243.070 L 1217.869 245.886 1212.484 247.091 L 1207.099 248.296 1201.300 247.134 L 1195.500 245.972 1191 243.207 L 1186.500 240.442 1183.259 235.622 L 1180.019 230.802 1178.377 225.651 L 1176.735 220.500 1176.266 207 L 1175.796 193.500 1176.898 187.500 L 1178 181.500 1181.035 175.306 L 1184.070 169.113 1187.947 166.042 L 1191.824 162.972 1195.662 161.335 L 1199.500 159.698 1207 159.646 L 1214.500 159.593 1219.070 161.661 L 1223.640 163.728 1227.341 167.539 L 1231.042 171.350 1232.756 176.175 L 1234.469 181 1235.625 181 L 1236.780 181 1246.640 179.008 L 1256.500 177.016 1258.703 176.501 L 1260.906 175.985 1259.532 172.092 L 1258.159 168.198 1255.387 162.538 L 1252.616 156.878 1247.234 151.539 L 1241.851 146.199 1236.083 143.125 L 1230.314 140.050 1223.907 138.540 L 1217.500 137.030 1208 137.098 L 1198.500 137.167 1192.601 138.594 M 1103.110 324.396 L 1100.720 325.720 1099.396 328.110 L 1098.071 330.500 1098.035 430.800 L 1098 531.099 1099.425 533.855 L 1100.850 536.611 1103.472 537.805 L 1106.094 539 1206.097 539 L 1306.099 539 1308.855 537.575 L 1311.611 536.150 1312.805 533.528 L 1314 530.906 1314 431 L 1314 331.094 1312.805 328.472 L 1311.611 325.850 1308.855 324.425 L 1306.099 323 1205.800 323.035 L 1105.500 323.071 1103.110 324.396 M 1108 431 L 1108 529 1206 529 L 1304 529 1304 431 L 1304 333 1206 333 L 1108 333 1108 431 M 1154 423.427 L 1154 488 1167 488 L 1180 488 1180 460.851 L 1180 433.703 1188.590 434.309 L 1197.180 434.915 1201.595 437.503 L 1206.011 440.091 1213.255 450.348 L 1220.500 460.605 1229.500 474.282 L 1238.500 487.959 1254.285 487.980 L 1270.070 488 1268.936 485.881 L 1267.802 483.761 1257.320 467.131 L 1246.838 450.500 1242.669 445.071 L 1238.500 439.642 1232.650 435.328 L 1226.799 431.014 1228.150 430.635 L 1229.500 430.256 1235.070 428.634 L 1240.640 427.011 1245.225 423.974 L 1249.811 420.937 1252.469 417.452 L 1255.127 413.967 1257.240 409.233 L 1259.353 404.500 1259.398 396 L 1259.443 387.500 1258.208 383.343 L 1256.973 379.185 1253.736 374.376 L 1250.500 369.567 1246.206 366.309 L 1241.912 363.051 1236.706 361.337 L 1231.500 359.622 1192.750 359.238 L 1154 358.855 1154 423.427 M 1180 396.542 L 1180 412.286 1200.313 411.779 L 1220.626 411.271 1224.431 409.466 L 1228.236 407.660 1230.114 404.580 L 1231.993 401.500 1231.996 395.885 L 1232 390.270 1229.912 387.615 L 1227.823 384.960 1224.662 383.259 L 1221.500 381.559 1200.750 381.178 L 1180 380.798 1180 396.542 M 1103.110 544.396 L 1100.720 545.720 1099.396 548.110 L 1098.071 550.500 1098.035 650.800 L 1098 751.099 1099.425 753.855 L 1100.850 756.611 1103.472 757.805 L 1106.094 759 1206.097 759 L 1306.099 759 1308.855 757.575 L 1311.611 756.150 1312.805 753.528 L 1314 750.906 1314 651 L 1314 551.094 1312.805 548.472 L 1311.611 545.850 1308.855 544.425 L 1306.099 543 1205.800 543.035 L 1105.500 543.071 1103.110 544.396 M 1108 651 L 1108 749 1206 749 L 1304 749 1304 651 L 1304 553 1206 553 L 1108 553 1108 651 M 1148 583.438 L 1148 583.877 1171.500 621.042 L 1195 658.208 1195 685.104 L 1195 712 1208 712 L 1221 712 1221 685.048 L 1221 658.096 1244.500 620.979 L 1268 583.861 1268 583.405 L 1268 582.948 1252.870 583.224 L 1237.740 583.500 1223.601 607.686 L 1209.461 631.872 1208.858 632.475 L 1208.255 633.079 1193.404 608.039 L 1178.553 583 1163.277 583 L 1148 583 1148 583.438 M 1017.500 660.632 L 1011.500 663.088 992.500 669.086 L 973.500 675.083 960 678.477 L 946.500 681.871 929 685.407 L 911.500 688.942 894 691.434 L 876.500 693.926 859 695.509 L 841.500 697.092 816 698.087 L 790.500 699.082 768.500 698.491 L 746.500 697.900 724 696.419 L 701.500 694.938 682.500 692.917 L 663.500 690.897 646 688.424 L 628.500 685.951 605.500 681.997 L 582.500 678.044 568 675.094 L 553.500 672.144 530.500 666.962 L 507.500 661.781 495.500 662.291 L 483.500 662.802 477.688 664.996 L 471.877 667.190 468.650 670.416 L 465.423 673.643 464.212 677.688 L 463 681.732 463 685.156 L 463 688.580 464.503 694.540 L 466.005 700.500 470.946 710.500 L 475.886 720.500 480.959 728.484 L 486.031 736.468 488.065 741.904 L 490.099 747.339 491.682 754.420 L 493.266 761.500 493.339 772.500 L 493.412 783.500 492.084 791 L 490.756 798.500 487.830 807.500 L 484.905 816.500 479.908 826.972 L 474.911 837.444 468.529 846.972 L 462.148 856.500 455.659 864.556 L 449.170 872.612 442.392 878.952 L 435.615 885.292 428.301 890.067 L 420.986 894.842 414.243 897.171 L 407.500 899.500 396.500 899.500 L 385.500 899.500 377.844 895.844 L 370.188 892.188 364.166 886.166 L 358.145 880.145 354.682 872.822 L 351.218 865.500 349.918 860 L 348.617 854.500 348.738 845.500 L 348.858 836.500 351.028 829.500 L 353.197 822.500 356.610 816 L 360.022 809.500 365.761 802.792 L 371.500 796.084 377.886 790.986 L 384.271 785.888 391.094 782.453 L 397.917 779.017 405.525 776.929 L 413.133 774.842 420.937 774.842 L 428.741 774.842 432.972 776.110 L 437.204 777.378 442.141 781.817 L 447.078 786.255 447.412 785.878 L 447.746 785.500 449.292 782.456 L 450.839 779.411 452.513 772.956 L 454.188 766.500 453.540 761.605 L 452.893 756.710 451.031 753.060 L 449.169 749.410 444.725 745.314 L 440.281 741.218 435.574 739.136 L 430.866 737.053 423.475 735.527 L 416.084 734 407.159 734 L 398.234 734 393.608 727.698 L 388.982 721.397 384.241 717.782 L 379.500 714.168 374.242 711.527 L 368.985 708.887 360.742 707.324 L 352.500 705.760 341.500 706.278 L 330.500 706.795 322.500 708.469 L 314.500 710.142 298.203 715.638 L 281.907 721.133 274.692 721.271 L 267.476 721.409 262.737 719.115 L 257.998 716.820 255.048 713.242 L 252.099 709.665 249.800 704.349 L 247.500 699.034 246.317 699.017 L 245.134 699 241.734 703.250 L 238.335 707.500 236.256 711 L 234.177 714.500 232.468 720.421 L 230.759 726.341 231.227 733.640 L 231.696 740.940 234.872 747.392 L 238.048 753.843 243.605 758.922 L 249.162 764.001 247.831 764.348 L 246.500 764.695 239 767.073 L 231.500 769.452 222.500 774.022 L 213.500 778.591 205.757 783.821 L 198.014 789.051 189.248 796.347 L 180.483 803.643 174.883 810.071 L 169.283 816.500 165.184 822.559 L 161.085 828.618 158.556 834.059 L 156.027 839.500 157.429 839.807 L 158.831 840.114 164.665 837.182 L 170.500 834.250 177.810 831.625 L 185.119 829 186.609 829 L 188.099 829 179.460 838.750 L 170.821 848.500 163.989 858.785 L 157.158 869.070 154.131 876.341 L 151.104 883.612 148.672 892.056 L 146.240 900.500 145.540 903.750 L 144.841 907 146.044 907 L 147.247 907 154.659 902.500 L 162.071 898 162.879 898 L 163.687 898 162.387 904.750 L 161.087 911.500 160.433 924.500 L 159.780 937.500 160.850 948.648 L 161.921 959.796 164.017 970.148 L 166.113 980.500 169.583 991 L 173.053 1001.500 178.972 1013.615 L 184.891 1025.730 191.845 1036.115 L 198.799 1046.500 206.003 1054.808 L 213.206 1063.117 220.853 1069.642 L 228.500 1076.168 234.500 1080.136 L 240.500 1084.104 248.500 1087.997 L 256.500 1091.889 264 1094.003 L 271.500 1096.117 281.500 1096.691 L 291.500 1097.266 283.958 1089.383 L 276.416 1081.500 272.725 1076.388 L 269.033 1071.277 265.564 1063.888 L 262.095 1056.500 261.418 1053.500 L 260.742 1050.500 261.676 1051.500 L 262.609 1052.500 270.023 1061.380 L 277.436 1070.259 301.247 1091.681 L 325.057 1113.103 331.188 1120.801 L 337.319 1128.500 340.405 1135 L 343.490 1141.500 343.466 1150.500 L 343.442 1159.500 341.748 1162.648 L 340.055 1165.795 335.777 1167.850 L 331.500 1169.904 326.500 1170.064 L 321.500 1170.224 305 1169.504 L 288.500 1168.783 283.576 1170.490 L 278.652 1172.197 275.921 1174.217 L 273.189 1176.236 270.637 1180.925 L 268.085 1185.614 267.415 1189.807 L 266.744 1194 341.372 1194 L 416 1194 416 1190.460 L 416 1186.920 414.095 1183.210 L 412.190 1179.500 409.294 1177.811 L 406.397 1176.122 400.949 1175.428 L 395.500 1174.734 394.078 1173.617 L 392.657 1172.500 389.324 1165.306 L 385.992 1158.113 383.492 1148.806 L 380.993 1139.500 379.055 1129.500 L 377.118 1119.500 376.013 1106.665 L 374.909 1093.831 375.974 1084.165 L 377.038 1074.500 378.124 1071.168 L 379.210 1067.835 376.855 1066.262 L 374.500 1064.689 369 1059.094 L 363.500 1053.500 360.729 1047.770 L 357.958 1042.040 357.407 1038.770 L 356.856 1035.500 359.087 1038.500 L 361.317 1041.500 367.935 1048 L 374.553 1054.500 382.276 1058.420 L 390 1062.340 390.010 1063.420 L 390.020 1064.500 388.320 1075.227 L 386.620 1085.953 387.153 1086.487 L 387.687 1087.020 395.594 1085.281 L 403.500 1083.542 417.500 1083.521 L 431.500 1083.500 445.500 1087.184 L 459.500 1090.867 469.917 1092.572 L 480.334 1094.277 492.417 1093.681 L 504.500 1093.086 511.500 1091.168 L 518.500 1089.251 524 1087.060 L 529.500 1084.869 537.942 1080.325 L 546.385 1075.782 558.195 1067.869 L 570.006 1059.957 572.434 1065.446 L 574.862 1070.936 579.316 1077.718 L 583.770 1084.500 589.112 1089.919 L 594.454 1095.339 600.477 1099.779 L 606.500 1104.219 614 1107.993 L 621.500 1111.767 630.658 1114.834 L 639.817 1117.900 648.658 1119.480 L 657.500 1121.060 671 1121.657 L 684.500 1122.254 697.664 1120.632 L 710.828 1119.011 718.664 1117.123 L 726.500 1115.235 732.500 1113.499 L 738.500 1111.763 747.742 1108.253 L 756.984 1104.742 758.385 1105.904 L 759.785 1107.067 765.860 1119.283 L 771.935 1131.500 773.468 1137.644 L 775 1143.789 775 1148.426 L 775 1153.064 773.612 1156.385 L 772.225 1159.706 761.362 1160.226 L 750.500 1160.746 744.067 1162.556 L 737.634 1164.366 733.882 1168.118 L 730.130 1171.870 729.053 1175.685 L 727.976 1179.500 727.341 1186.750 L 726.707 1194 772.830 1194 L 818.954 1194 820.476 1191.677 L 821.998 1189.354 824.690 1181.927 L 827.382 1174.500 827.403 1160 L 827.423 1145.500 825.080 1136 L 822.737 1126.500 819.273 1116.500 L 815.809 1106.500 809.792 1094.684 L 803.774 1082.869 798.040 1075.184 L 792.305 1067.500 786.349 1061.866 L 780.392 1056.232 775.446 1053.728 L 770.500 1051.223 765 1049.574 L 759.500 1047.925 742.833 1046.025 L 726.166 1044.126 722.075 1042.038 L 717.984 1039.951 714.536 1035.226 L 711.089 1030.500 708.114 1021 L 705.140 1011.500 701.657 996.700 L 698.175 981.900 693.837 972.727 L 689.500 963.553 684.684 957.527 L 679.868 951.500 674.684 947.194 L 669.500 942.889 661.500 938.997 L 653.500 935.106 644.500 932.511 L 635.500 929.917 628.449 928.459 L 621.399 927.001 613.449 925.947 L 605.500 924.892 583.657 924.920 L 561.814 924.948 565.572 920.724 L 569.331 916.500 574.915 911.677 L 580.500 906.854 587.175 902.927 L 593.849 899 601.279 896.025 L 608.709 893.050 617.319 891.042 L 625.930 889.034 638.215 887.505 L 650.500 885.976 680 885.447 L 709.500 884.918 723 883.891 L 736.500 882.863 744 881.383 L 751.500 879.903 758 877.828 L 764.500 875.752 771.170 872.294 L 777.840 868.836 783.920 863.334 L 790 857.832 790 856.916 L 790 856 781.250 855.998 L 772.500 855.995 759.062 854.970 L 745.624 853.945 733.523 852.004 L 721.422 850.062 712.211 847.942 L 703 845.821 703 845.651 L 703 845.480 731.702 845.855 L 760.404 846.229 774.452 845.070 L 788.500 843.911 801 841.920 L 813.500 839.928 827 836.512 L 840.500 833.096 847.500 830.663 L 854.500 828.230 859.703 826.148 L 864.905 824.067 875.181 818.958 L 885.457 813.850 894.979 807.596 L 904.500 801.342 912.454 794.926 L 920.408 788.510 918.765 788.193 L 917.122 787.877 907.811 790.925 L 898.500 793.973 886.500 796.988 L 874.500 800.003 858 802.991 L 841.500 805.978 825.500 807.607 L 809.500 809.236 783.500 809.324 L 757.500 809.413 742.500 808.162 L 727.500 806.912 716.016 805.389 L 704.533 803.866 704.016 803.300 L 703.500 802.734 714.500 803.383 L 725.500 804.032 753 803.029 L 780.500 802.026 796 800.450 L 811.500 798.875 823.823 796.923 L 836.147 794.971 850.158 792.001 L 864.169 789.031 874.835 785.983 L 885.500 782.935 897 778.911 L 908.500 774.887 925.500 766.527 L 942.500 758.166 951.253 752.263 L 960.005 746.359 967.753 740.235 L 975.500 734.111 981.944 727.583 L 988.388 721.055 987.944 720.647 L 987.500 720.239 974.500 726.006 L 961.500 731.772 948 736.817 L 934.500 741.862 921 745.933 L 907.500 750.004 893.902 752.984 L 880.305 755.965 864.902 758.437 L 849.500 760.908 836.500 762.026 L 823.500 763.143 802 763.148 L 780.500 763.153 767 762.048 L 753.500 760.944 737 758.429 L 720.500 755.915 719.500 755.536 L 718.500 755.158 736.500 755.070 L 754.500 754.982 773.500 754.008 L 792.500 753.033 804 751.968 L 815.500 750.902 831.480 748.896 L 847.460 746.891 860.980 744.412 L 874.500 741.933 890 737.885 L 905.500 733.837 917.402 729.862 L 929.303 725.887 943.412 719.656 L 957.522 713.425 969.721 706.206 L 981.920 698.987 990.855 692.244 L 999.789 685.500 1006.145 679.616 L 1012.500 673.733 1018.750 666.711 L 1025 659.690 1025 658.845 L 1025 658 1024.250 658.088 L 1023.500 658.177 1017.500 660.632 M 341 720.169 L 337.500 721.157 334.796 723.722 L 332.092 726.286 330.546 729.544 L 329 732.802 329 739.433 L 329 746.064 330.364 749.329 L 331.728 752.593 334.909 755.270 L 338.091 757.947 342.290 759.078 L 346.489 760.209 351.583 759.069 L 356.677 757.929 359.777 754.714 L 362.877 751.500 364.029 748.500 L 365.180 745.500 365.249 739.997 L 365.318 734.493 364.140 730.925 L 362.962 727.356 359.731 724.269 L 356.500 721.182 352.500 720.097 L 348.500 719.011 346.500 719.096 L 344.500 719.180 341 720.169 M 341.117 727.631 L 338.789 729.261 337.394 732.599 L 336 735.936 336 739.500 L 336 743.064 337.394 746.401 L 338.789 749.739 341.117 751.369 L 343.445 753 347.088 753 L 350.730 753 353.293 750.984 L 355.855 748.969 357.044 745.368 L 358.232 741.767 357.745 736.693 L 357.257 731.619 354.113 728.809 L 350.968 726 347.207 726 L 343.445 726 341.117 727.631 M 1103.110 764.396 L 1100.720 765.720 1099.396 768.110 L 1098.071 770.500 1098.035 870.800 L 1098 971.099 1099.425 973.855 L 1100.850 976.611 1103.472 977.805 L 1106.094 979 1206.097 979 L 1306.099 979 1308.855 977.575 L 1311.611 976.150 1312.805 973.528 L 1314 970.906 1314 871 L 1314 771.094 1312.805 768.472 L 1311.611 765.850 1308.855 764.425 L 1306.099 763 1205.800 763.035 L 1105.500 763.071 1103.110 764.396 M 1108 871 L 1108 969 1206 969 L 1304 969 1304 871 L 1304 773 1206 773 L 1108 773 1108 871 M 1161 867.500 L 1161 932 1174 932 L 1187 932 1187 907.500 L 1187 883 1203.750 882.980 L 1220.500 882.960 1226.925 882.031 L 1233.349 881.103 1239.610 878.021 L 1245.870 874.939 1250.381 869.921 L 1254.892 864.903 1257.176 859.202 L 1259.459 853.500 1259.422 842.500 L 1259.386 831.500 1257.139 825.798 L 1254.892 820.097 1250.545 815.261 L 1246.197 810.425 1241.318 807.770 L 1236.440 805.114 1229.970 804.065 L 1223.500 803.015 1192.250 803.008 L 1161 803 1161 867.500 M 1187 843.009 L 1187 861.301 1202.548 860.734 L 1218.095 860.166 1222.796 857.833 L 1227.497 855.500 1229.724 852.138 L 1231.951 848.776 1232.557 845.547 L 1233.163 842.318 1232.079 838.293 L 1230.995 834.268 1228.248 831.494 L 1225.500 828.720 1222 827.231 L 1218.500 825.741 1202.750 825.229 L 1187 824.716 1187 843.009 M 932.526 925.973 L 929.677 928.947 925.089 930.422 L 920.500 931.897 914.500 932.957 L 908.500 934.018 903.297 936.559 L 898.095 939.101 893.797 943.885 L 889.500 948.670 887.500 954.085 L 885.500 959.500 885.500 980.500 L 885.500 1001.500 882.687 1007.229 L 879.875 1012.958 876.458 1015.774 L 873.042 1018.590 867.771 1020.545 L 862.500 1022.500 852 1022.382 L 841.500 1022.264 833.825 1020.192 L 826.149 1018.120 818.661 1015.003 L 811.173 1011.885 805.096 1008.193 L 799.020 1004.500 792.812 1000 L 786.605 995.500 764.931 974.352 L 743.256 953.204 735.848 947.725 L 728.440 942.247 721.427 938.715 L 714.414 935.183 706.957 932.846 L 699.500 930.509 685.500 930.504 L 671.500 930.500 669.601 931.276 L 667.703 932.051 673.544 935.569 L 679.385 939.086 684.644 943.579 L 689.904 948.072 694.702 955.389 L 699.500 962.706 701.118 965.704 L 702.736 968.702 711.118 969.275 L 719.500 969.849 725.683 971.994 L 731.867 974.139 737.900 977.819 L 743.933 981.500 757.589 992.898 L 771.246 1004.296 782.373 1012.242 L 793.500 1020.188 805.500 1026.058 L 817.500 1031.928 825 1033.972 L 832.500 1036.016 841.056 1037.058 L 849.611 1038.100 856.245 1037.041 L 862.878 1035.981 867.655 1033.934 L 872.431 1031.886 877.302 1028.193 L 882.174 1024.500 886.728 1018.500 L 891.283 1012.500 895.597 1003.500 L 899.910 994.500 901.984 982.633 L 904.059 970.766 905.566 968.133 L 907.073 965.500 906.407 967.947 L 905.740 970.393 904.484 979.947 L 903.227 989.500 904.104 990.440 L 904.980 991.380 908.740 989.617 L 912.500 987.854 916.286 985.266 L 920.073 982.677 924.420 976.895 L 928.767 971.112 931.908 963.566 L 935.050 956.020 936.599 945.760 L 938.149 935.500 937.495 929.250 L 936.841 923 936.107 923 L 935.374 923 932.526 925.973 M 1103.110 984.396 L 1100.720 985.720 1099.396 988.110 L 1098.071 990.500 1098.035 1090.800 L 1098 1191.099 1099.425 1193.855 L 1100.850 1196.611 1103.472 1197.805 L 1106.094 1199 1206.097 1199 L 1306.099 1199 1308.855 1197.575 L 1311.611 1196.150 1312.805 1193.528 L 1314 1190.906 1314 1091 L 1314 991.094 1312.805 988.472 L 1311.611 985.850 1308.855 984.425 L 1306.099 983 1205.800 983.035 L 1105.500 983.071 1103.110 984.396 M 1108 1091 L 1108 1189 1206 1189 L 1304 1189 1304 1091 L 1304 993 1206 993 L 1108 993 1108 1091 M 162.726 1028.254 L 162.247 1056.500 160.607 1062.869 L 158.968 1069.239 155.861 1076.369 L 152.754 1083.500 145.860 1097.301 L 138.967 1111.102 134.801 1117.801 L 130.636 1124.500 122.412 1135.547 L 114.188 1146.595 107.810 1152.547 L 101.431 1158.500 95.966 1161.122 L 90.500 1163.743 85.115 1165.004 L 79.729 1166.264 59.950 1165.548 L 40.171 1164.831 35.655 1166.828 L 31.138 1168.826 28.136 1172.971 L 25.134 1177.115 23.567 1184.005 L 22 1190.895 22 1192.447 L 22 1194 103 1194 L 184 1194 184 1190.468 L 184 1186.936 182.629 1183.718 L 181.258 1180.500 178.580 1178.030 L 175.903 1175.560 168.701 1175.220 L 161.500 1174.880 158.750 1173.818 L 156 1172.757 156 1169.859 L 156 1166.960 158.453 1163.075 L 160.905 1159.190 168.332 1150.345 L 175.758 1141.500 180.129 1137.328 L 184.500 1133.155 189.937 1129.604 L 195.373 1126.053 202.565 1124.453 L 209.756 1122.854 215.128 1123.932 L 220.500 1125.011 223.250 1125.622 L 226 1126.233 226 1122.827 L 226 1119.420 227.515 1113.460 L 229.030 1107.500 232.515 1100.361 L 236 1093.221 236 1092.641 L 236 1092.061 228.250 1086.891 L 220.500 1081.722 207.936 1069.111 L 195.372 1056.500 187.032 1044 L 178.692 1031.500 171.846 1017.512 L 165 1003.525 165 1002.321 L 165 1001.118 164.102 1000.563 L 163.205 1000.009 162.726 1028.254 M 1157 1034 L 1157 1045 1176 1045 L 1195 1045 1195 1098.500 L 1195 1152 1208 1152 L 1221 1152 1221 1098.500 L 1221 1045 1240.500 1045 L 1260 1045 1260 1034 L 1260 1023 1208.500 1023 L 1157 1023 1157 1034 M 558.500 1080.113 L 550.500 1085.147 543.527 1088.699 L 536.554 1092.250 527.961 1095.569 L 519.367 1098.887 509.277 1100.944 L 499.186 1103 494.843 1103.015 L 490.500 1103.031 489.192 1103.860 L 487.883 1104.690 491.350 1107.734 L 494.816 1110.777 499.158 1113.756 L 503.500 1116.734 509.922 1119.968 L 516.344 1123.202 525.588 1125.547 L 534.832 1127.892 545.666 1129.033 L 556.500 1130.173 558.624 1130.836 L 560.747 1131.500 552.439 1150.500 L 544.132 1169.500 543.057 1171.250 L 541.983 1173 530.702 1173 L 519.420 1173 513.684 1174.494 L 507.948 1175.988 505.624 1177.511 L 503.299 1179.034 500.777 1183.767 L 498.254 1188.500 497.608 1191.250 L 496.962 1194 540.392 1194 L 583.821 1194 589.283 1185.250 L 594.744 1176.500 602.043 1164 L 609.342 1151.500 614.644 1143.257 L 619.946 1135.014 624.086 1130.522 L 628.226 1126.031 627.694 1124.644 L 627.162 1123.257 624.331 1122.553 L 621.500 1121.848 613.381 1118.050 L 605.262 1114.253 598.881 1109.979 L 592.500 1105.706 583.500 1096.561 L 574.500 1087.417 571 1081.238 L 567.500 1075.059 567 1075.069 L 566.500 1075.079 558.500 1080.113 M 5.110 1204.396 L 2.720 1205.720 1.396 1208.110 L 0.071 1210.500 0.035 1310.800 L -0 1411.099 1.425 1413.855 L 2.850 1416.611 5.472 1417.805 L 8.094 1419 108.097 1419 L 208.099 1419 210.855 1417.575 L 213.611 1416.150 214.805 1413.528 L 216 1410.906 216 1311 L 216 1211.094 214.805 1208.472 L 213.611 1205.850 210.855 1204.425 L 208.099 1203 107.800 1203.035 L 7.500 1203.071 5.110 1204.396 M 225.110 1204.396 L 222.720 1205.720 221.396 1208.110 L 220.071 1210.500 220.035 1310.800 L 220 1411.099 221.425 1413.855 L 222.850 1416.611 225.472 1417.805 L 228.094 1419 328.097 1419 L 428.099 1419 430.855 1417.575 L 433.611 1416.150 434.805 1413.528 L 436 1410.906 436 1311 L 436 1211.094 434.805 1208.472 L 433.611 1205.850 430.855 1204.425 L 428.099 1203 327.800 1203.035 L 227.500 1203.071 225.110 1204.396 M 443.110 1204.396 L 440.720 1205.720 439.396 1208.110 L 438.071 1210.500 438.035 1310.800 L 438 1411.099 439.425 1413.855 L 440.850 1416.611 443.472 1417.805 L 446.094 1419 546.097 1419 L 646.099 1419 648.855 1417.575 L 651.611 1416.150 652.805 1413.528 L 654 1410.906 654 1311 L 654 1211.094 652.805 1208.472 L 651.611 1205.850 648.855 1204.425 L 646.099 1203 545.800 1203.035 L 445.500 1203.071 443.110 1204.396 M 663.110 1204.396 L 660.720 1205.720 659.396 1208.110 L 658.071 1210.500 658.035 1310.800 L 658 1411.099 659.425 1413.855 L 660.850 1416.611 663.472 1417.805 L 666.094 1419 766.097 1419 L 866.099 1419 868.855 1417.575 L 871.611 1416.150 872.805 1413.528 L 874 1410.906 874 1311 L 874 1211.094 872.805 1208.472 L 871.611 1205.850 868.855 1204.425 L 866.099 1203 765.800 1203.035 L 665.500 1203.071 663.110 1204.396 M 883.110 1204.396 L 880.720 1205.720 879.396 1208.110 L 878.071 1210.500 878.035 1310.800 L 878 1411.099 879.425 1413.855 L 880.850 1416.611 883.472 1417.805 L 886.094 1419 986.097 1419 L 1086.099 1419 1088.855 1417.575 L 1091.611 1416.150 1092.805 1413.528 L 1094 1410.906 1094 1311 L 1094 1211.094 1092.805 1208.472 L 1091.611 1205.850 1088.855 1204.425 L 1086.099 1203 985.800 1203.035 L 885.500 1203.071 883.110 1204.396 M 1103.110 1204.396 L 1100.720 1205.720 1099.396 1208.110 L 1098.071 1210.500 1098.035 1310.800 L 1098 1411.099 1099.425 1413.855 L 1100.850 1416.611 1103.472 1417.805 L 1106.094 1419 1206.097 1419 L 1306.099 1419 1308.855 1417.575 L 1311.611 1416.150 1312.805 1413.528 L 1314 1410.906 1314 1311 L 1314 1211.094 1312.805 1208.472 L 1311.611 1205.850 1308.855 1204.425 L 1306.099 1203 1205.800 1203.035 L 1105.500 1203.071 1103.110 1204.396 M 1323.110 1204.396 L 1320.720 1205.720 1319.396 1208.110 L 1318.071 1210.500 1318.035 1310.800 L 1318 1411.099 1319.425 1413.855 L 1320.850 1416.611 1323.472 1417.805 L 1326.094 1419 1426.097 1419 L 1526.099 1419 1528.855 1417.575 L 1531.611 1416.150 1532.805 1413.528 L 1534 1410.906 1534 1311 L 1534 1211.094 1532.805 1208.472 L 1531.611 1205.850 1528.855 1204.425 L 1526.099 1203 1425.800 1203.035 L 1325.500 1203.071 1323.110 1204.396 M 10 1311 L 10 1409 108 1409 L 206 1409 206 1311 L 206 1213 108 1213 L 10 1213 10 1311 M 230 1311 L 230 1409 328 1409 L 426 1409 426 1311 L 426 1213 328 1213 L 230 1213 230 1311 M 448 1311 L 448 1409 546 1409 L 644 1409 644 1311 L 644 1213 546 1213 L 448 1213 448 1311 M 668 1311 L 668 1409 766 1409 L 864 1409 864 1311 L 864 1213 766 1213 L 668 1213 668 1311 M 888 1311 L 888 1409 986 1409 L 1084 1409 1084 1311 L 1084 1213 986 1213 L 888 1213 888 1311 M 1108 1311 L 1108 1409 1206 1409 L 1304 1409 1304 1311 L 1304 1213 1206 1213 L 1108 1213 1108 1311 M 1328 1311 L 1328 1409 1426 1409 L 1524 1409 1524 1311 L 1524 1213 1426 1213 L 1328 1213 1328 1311 M 94 1240.554 L 87.500 1241.948 80.065 1245.705 L 72.629 1249.462 66.050 1255.981 L 59.471 1262.500 55.708 1269.700 L 51.944 1276.899 49.863 1284.700 L 47.782 1292.500 47.782 1305 L 47.782 1317.500 49.859 1325.287 L 51.937 1333.073 56.064 1341.005 L 60.190 1348.937 67.052 1355.410 L 73.914 1361.883 81.207 1365.352 L 88.500 1368.820 96.383 1370.540 L 104.265 1372.260 116.383 1371.717 L 128.500 1371.174 136 1369.016 L 143.500 1366.858 151.500 1363.062 L 159.500 1359.267 163.750 1356.127 L 168 1352.987 168 1326.994 L 168 1301 140 1301 L 112 1301 112 1312 L 112 1323 127.040 1323 L 142.081 1323 141.790 1331.179 L 141.500 1339.358 134.500 1343.150 L 127.500 1346.942 120.500 1348.551 L 113.500 1350.159 107.360 1349.512 L 101.221 1348.864 95.360 1346.088 L 89.500 1343.312 85.793 1339.201 L 82.087 1335.090 80.039 1331.077 L 77.991 1327.063 76.511 1320.781 L 75.030 1314.500 75.015 1304.460 L 75 1294.420 76.533 1288.535 L 78.066 1282.650 80.783 1277.652 L 83.500 1272.655 88.230 1268.915 L 92.959 1265.174 98.230 1263.378 L 103.500 1261.582 111.500 1261.546 L 119.500 1261.509 125.230 1264.318 L 130.959 1267.127 133.970 1270.780 L 136.981 1274.432 138.740 1278.712 L 140.500 1282.993 141.640 1282.996 L 142.780 1283 152.640 1281.008 L 162.500 1279.016 164.670 1278.509 L 166.839 1278.002 165.822 1274.251 L 164.804 1270.500 161.265 1263.725 L 157.726 1256.950 152.552 1252.225 L 147.378 1247.500 141.750 1244.749 L 136.122 1241.998 128.996 1240.499 L 121.869 1239 111.185 1239.079 L 100.500 1239.159 94 1240.554 M 1188 1240.560 L 1181.500 1241.961 1174.392 1245.465 L 1167.284 1248.969 1160.215 1256.410 L 1153.146 1263.852 1149.646 1271.176 L 1146.146 1278.500 1144.573 1286.208 L 1143 1293.916 1143.017 1306.208 L 1143.035 1318.500 1144.499 1325.500 L 1145.964 1332.500 1149.925 1340.500 L 1153.885 1348.500 1158.855 1353.681 L 1163.824 1358.863 1169.282 1362.487 L 1174.740 1366.111 1182.120 1368.666 L 1189.500 1371.221 1201.617 1371.740 L 1213.735 1372.260 1221.371 1370.561 L 1229.007 1368.862 1236.254 1365.255 L 1243.500 1361.648 1250.084 1355.074 L 1256.668 1348.500 1260.324 1341 L 1263.980 1333.500 1265.737 1327 L 1267.495 1320.500 1267.467 1305.500 L 1267.439 1290.500 1265.709 1284 L 1263.980 1277.500 1260.348 1270.074 L 1256.717 1262.648 1250.034 1255.966 L 1243.352 1249.283 1235.926 1245.629 L 1228.500 1241.974 1221.500 1240.504 L 1214.500 1239.035 1204.500 1239.097 L 1194.500 1239.159 1188 1240.560 M 268 1305.427 L 268 1370 281 1370 L 294 1370 294 1342.851 L 294 1315.703 302.590 1316.309 L 311.180 1316.915 315.595 1319.503 L 320.011 1322.091 327.255 1332.348 L 334.500 1342.605 343.500 1356.282 L 352.500 1369.959 368.285 1369.980 L 384.070 1370 382.936 1367.881 L 381.802 1365.761 371.320 1349.131 L 360.838 1332.500 356.669 1327.071 L 352.500 1321.642 346.650 1317.328 L 340.799 1313.014 342.150 1312.635 L 343.500 1312.256 349.070 1310.634 L 354.640 1309.011 359.225 1305.974 L 363.811 1302.937 366.469 1299.452 L 369.127 1295.967 371.240 1291.233 L 373.353 1286.500 373.398 1278 L 373.443 1269.500 372.208 1265.343 L 370.973 1261.185 367.736 1256.376 L 364.500 1251.567 360.206 1248.309 L 355.912 1245.051 350.706 1243.337 L 345.500 1241.622 306.750 1241.238 L 268 1240.855 268 1305.427 M 483 1241.438 L 483 1241.877 506.500 1279.042 L 530 1316.208 530 1343.104 L 530 1370 543 1370 L 556 1370 556 1343.048 L 556 1316.096 579.500 1278.979 L 603 1241.861 603 1241.405 L 603 1240.948 587.870 1241.224 L 572.740 1241.500 558.601 1265.686 L 544.461 1289.872 543.858 1290.475 L 543.255 1291.079 528.404 1266.039 L 513.553 1241 498.277 1241 L 483 1241 483 1241.438 M 713 1305.500 L 713 1370 726 1370 L 739 1370 739 1345.500 L 739 1321 755.750 1320.980 L 772.500 1320.960 778.925 1320.031 L 785.349 1319.103 791.610 1316.021 L 797.870 1312.939 802.381 1307.921 L 806.892 1302.903 809.176 1297.202 L 811.459 1291.500 811.422 1280.500 L 811.386 1269.500 809.139 1263.798 L 806.892 1258.097 802.545 1253.261 L 798.197 1248.425 793.318 1245.770 L 788.440 1243.114 781.970 1242.065 L 775.500 1241.015 744.250 1241.008 L 713 1241 713 1305.500 M 931 1305.500 L 931 1370 944 1370 L 957 1370 957 1342 L 957 1314 982.500 1314 L 1008 1314 1008 1342 L 1008 1370 1021 1370 L 1034 1370 1034 1305.500 L 1034 1241 1021 1241 L 1008 1241 1008 1266.500 L 1008 1292 982.500 1292 L 957 1292 957 1266.500 L 957 1241 944 1241 L 931 1241 931 1305.500 M 1375 1305.471 L 1375 1370 1387.500 1370 L 1400 1370 1400 1328.842 L 1400 1287.683 1425.595 1328.842 L 1451.190 1370 1464.595 1370 L 1478 1370 1478 1305.500 L 1478 1241 1465.511 1241 L 1453.022 1241 1452.761 1282.449 L 1452.500 1323.899 1426.883 1282.699 L 1401.267 1241.500 1388.133 1241.221 L 1375 1240.942 1375 1305.471 M 1196.500 1262.338 L 1191.500 1263.628 1189 1264.970 L 1186.500 1266.312 1183.360 1268.691 L 1180.219 1271.070 1177.513 1275.160 L 1174.806 1279.250 1172.824 1284.875 L 1170.843 1290.500 1170.287 1300.568 L 1169.731 1310.636 1170.899 1317.568 L 1172.067 1324.500 1175.064 1330.685 L 1178.061 1336.870 1183.060 1341.364 L 1188.060 1345.859 1193.280 1347.665 L 1198.500 1349.471 1206 1349.444 L 1213.500 1349.416 1219.046 1346.857 L 1224.591 1344.298 1228.138 1341.184 L 1231.684 1338.070 1234.721 1332.285 L 1237.757 1326.500 1238.833 1321.500 L 1239.909 1316.500 1240.520 1310.500 L 1241.132 1304.500 1240.115 1296.419 L 1239.099 1288.338 1236.925 1282.419 L 1234.751 1276.500 1229.081 1270.914 L 1223.411 1265.328 1218.455 1263.620 L 1213.500 1261.913 1207.500 1261.480 L 1201.500 1261.047 1196.500 1262.338 M 294 1278.542 L 294 1294.286 314.313 1293.779 L 334.626 1293.271 338.431 1291.466 L 342.236 1289.660 344.114 1286.580 L 345.993 1283.500 345.996 1277.885 L 346 1272.270 343.912 1269.615 L 341.823 1266.960 338.662 1265.259 L 335.500 1263.559 314.750 1263.178 L 294 1262.798 294 1278.542 M 739 1281.009 L 739 1299.301 754.548 1298.734 L 770.095 1298.166 774.796 1295.833 L 779.497 1293.500 781.724 1290.138 L 783.951 1286.776 784.557 1283.547 L 785.163 1280.318 784.079 1276.293 L 782.995 1272.268 780.248 1269.494 L 777.500 1266.720 774 1265.231 L 770.500 1263.741 754.750 1263.229 L 739 1262.716 739 1281.009" stroke="none" fill="#fab204" fill-rule="evenodd"/><path d="M 1108 211 L 1108 309 1206 309 L 1304 309 1304 211 L 1304 113 1206 113 L 1108 113 1108 211 M 1192.601 138.594 L 1186.702 140.021 1180.101 143.261 L 1173.500 146.500 1166.954 153 L 1160.408 159.500 1156.676 166.700 L 1152.944 173.899 1150.847 181.700 L 1148.749 189.500 1148.728 204 L 1148.706 218.500 1150.828 226.314 L 1152.951 234.128 1156.195 240.314 L 1159.439 246.500 1166.470 253.611 L 1173.500 260.722 1179.740 263.870 L 1185.979 267.018 1192.240 268.494 L 1198.500 269.970 1207.500 269.970 L 1216.500 269.970 1222.760 268.494 L 1229.021 267.018 1235.209 263.895 L 1241.397 260.771 1246.645 255.395 L 1251.893 250.020 1255.947 241.760 L 1260 233.500 1260.250 231.079 L 1260.500 228.658 1248.500 224.845 L 1236.500 221.033 1235.933 221.016 L 1235.365 221 1233.676 226.360 L 1231.986 231.720 1229.120 235.987 L 1226.254 240.254 1222.062 243.070 L 1217.869 245.886 1212.484 247.091 L 1207.099 248.296 1201.300 247.134 L 1195.500 245.972 1191 243.207 L 1186.500 240.442 1183.259 235.622 L 1180.019 230.802 1178.377 225.651 L 1176.735 220.500 1176.266 207 L 1175.796 193.500 1176.898 187.500 L 1178 181.500 1181.035 175.306 L 1184.070 169.113 1187.947 166.042 L 1191.824 162.972 1195.662 161.335 L 1199.500 159.698 1207 159.646 L 1214.500 159.593 1219.070 161.661 L 1223.640 163.728 1227.341 167.539 L 1231.042 171.350 1232.756 176.175 L 1234.469 181 1235.625 181 L 1236.780 181 1246.640 179.008 L 1256.500 177.016 1258.703 176.501 L 1260.906 175.985 1259.532 172.092 L 1258.159 168.198 1255.387 162.538 L 1252.616 156.878 1247.234 151.539 L 1241.851 146.199 1236.083 143.125 L 1230.314 140.050 1223.907 138.540 L 1217.500 137.030 1208 137.098 L 1198.500 137.167 1192.601 138.594 M 1108 431 L 1108 529 1206 529 L 1304 529 1304 431 L 1304 333 1206 333 L 1108 333 1108 431 M 1154 423.427 L 1154 488 1167 488 L 1180 488 1180 460.851 L 1180 433.703 1188.590 434.309 L 1197.180 434.915 1201.595 437.503 L 1206.011 440.091 1213.255 450.348 L 1220.500 460.605 1229.500 474.282 L 1238.500 487.959 1254.285 487.980 L 1270.070 488 1268.936 485.881 L 1267.802 483.761 1257.320 467.131 L 1246.838 450.500 1242.669 445.071 L 1238.500 439.642 1232.650 435.328 L 1226.799 431.014 1228.150 430.635 L 1229.500 430.256 1235.070 428.634 L 1240.640 427.011 1245.225 423.974 L 1249.811 420.937 1252.469 417.452 L 1255.127 413.967 1257.240 409.233 L 1259.353 404.500 1259.398 396 L 1259.443 387.500 1258.208 383.343 L 1256.973 379.185 1253.736 374.376 L 1250.500 369.567 1246.206 366.309 L 1241.912 363.051 1236.706 361.337 L 1231.500 359.622 1192.750 359.238 L 1154 358.855 1154 423.427 M 1180 396.542 L 1180 412.286 1200.313 411.779 L 1220.626 411.271 1224.431 409.466 L 1228.236 407.660 1230.114 404.580 L 1231.993 401.500 1231.996 395.885 L 1232 390.270 1229.912 387.615 L 1227.823 384.960 1224.662 383.259 L 1221.500 381.559 1200.750 381.178 L 1180 380.798 1180 396.542 M 1108 651 L 1108 749 1206 749 L 1304 749 1304 651 L 1304 553 1206 553 L 1108 553 1108 651 M 1148 583.438 L 1148 583.877 1171.500 621.042 L 1195 658.208 1195 685.104 L 1195 712 1208 712 L 1221 712 1221 685.048 L 1221 658.096 1244.500 620.979 L 1268 583.861 1268 583.405 L 1268 582.948 1252.870 583.224 L 1237.740 583.500 1223.601 607.686 L 1209.461 631.872 1208.858 632.475 L 1208.255 633.079 1193.404 608.039 L 1178.553 583 1163.277 583 L 1148 583 1148 583.438 M 341 720.169 L 337.500 721.157 334.796 723.722 L 332.092 726.286 330.546 729.544 L 329 732.802 329 739.433 L 329 746.064 330.364 749.329 L 331.728 752.593 334.909 755.270 L 338.091 757.947 342.290 759.078 L 346.489 760.209 351.583 759.069 L 356.677 757.929 359.777 754.714 L 362.877 751.500 364.029 748.500 L 365.180 745.500 365.249 739.997 L 365.318 734.493 364.140 730.925 L 362.962 727.356 359.731 724.269 L 356.500 721.182 352.500 720.097 L 348.500 719.011 346.500 719.096 L 344.500 719.180 341 720.169 M 341.117 727.631 L 338.789 729.261 337.394 732.599 L 336 735.936 336 739.500 L 336 743.064 337.394 746.401 L 338.789 749.739 341.117 751.369 L 343.445 753 347.088 753 L 350.730 753 353.293 750.984 L 355.855 748.969 357.044 745.368 L 358.232 741.767 357.745 736.693 L 357.257 731.619 354.113 728.809 L 350.968 726 347.207 726 L 343.445 726 341.117 727.631 M 1108 871 L 1108 969 1206 969 L 1304 969 1304 871 L 1304 773 1206 773 L 1108 773 1108 871 M 1161 867.500 L 1161 932 1174 932 L 1187 932 1187 907.500 L 1187 883 1203.750 882.980 L 1220.500 882.960 1226.925 882.031 L 1233.349 881.103 1239.610 878.021 L 1245.870 874.939 1250.381 869.921 L 1254.892 864.903 1257.176 859.202 L 1259.459 853.500 1259.422 842.500 L 1259.386 831.500 1257.139 825.798 L 1254.892 820.097 1250.545 815.261 L 1246.197 810.425 1241.318 807.770 L 1236.440 805.114 1229.970 804.065 L 1223.500 803.015 1192.250 803.008 L 1161 803 1161 867.500 M 1187 843.009 L 1187 861.301 1202.548 860.734 L 1218.095 860.166 1222.796 857.833 L 1227.497 855.500 1229.724 852.138 L 1231.951 848.776 1232.557 845.547 L 1233.163 842.318 1232.079 838.293 L 1230.995 834.268 1228.248 831.494 L 1225.500 828.720 1222 827.231 L 1218.500 825.741 1202.750 825.229 L 1187 824.716 1187 843.009 M 1108 1091 L 1108 1189 1206 1189 L 1304 1189 1304 1091 L 1304 993 1206 993 L 1108 993 1108 1091 M 1157 1034 L 1157 1045 1176 1045 L 1195 1045 1195 1098.500 L 1195 1152 1208 1152 L 1221 1152 1221 1098.500 L 1221 1045 1240.500 1045 L 1260 1045 1260 1034 L 1260 1023 1208.500 1023 L 1157 1023 1157 1034 M 10 1311 L 10 1409 108 1409 L 206 1409 206 1311 L 206 1213 108 1213 L 10 1213 10 1311 M 230 1311 L 230 1409 328 1409 L 426 1409 426 1311 L 426 1213 328 1213 L 230 1213 230 1311 M 448 1311 L 448 1409 546 1409 L 644 1409 644 1311 L 644 1213 546 1213 L 448 1213 448 1311 M 668 1311 L 668 1409 766 1409 L 864 1409 864 1311 L 864 1213 766 1213 L 668 1213 668 1311 M 888 1311 L 888 1409 986 1409 L 1084 1409 1084 1311 L 1084 1213 986 1213 L 888 1213 888 1311 M 1108 1311 L 1108 1409 1206 1409 L 1304 1409 1304 1311 L 1304 1213 1206 1213 L 1108 1213 1108 1311 M 1328 1311 L 1328 1409 1426 1409 L 1524 1409 1524 1311 L 1524 1213 1426 1213 L 1328 1213 1328 1311 M 94 1240.554 L 87.500 1241.948 80.065 1245.705 L 72.629 1249.462 66.050 1255.981 L 59.471 1262.500 55.708 1269.700 L 51.944 1276.899 49.863 1284.700 L 47.782 1292.500 47.782 1305 L 47.782 1317.500 49.859 1325.287 L 51.937 1333.073 56.064 1341.005 L 60.190 1348.937 67.052 1355.410 L 73.914 1361.883 81.207 1365.352 L 88.500 1368.820 96.383 1370.540 L 104.265 1372.260 116.383 1371.717 L 128.500 1371.174 136 1369.016 L 143.500 1366.858 151.500 1363.062 L 159.500 1359.267 163.750 1356.127 L 168 1352.987 168 1326.994 L 168 1301 140 1301 L 112 1301 112 1312 L 112 1323 127.040 1323 L 142.081 1323 141.790 1331.179 L 141.500 1339.358 134.500 1343.150 L 127.500 1346.942 120.500 1348.551 L 113.500 1350.159 107.360 1349.512 L 101.221 1348.864 95.360 1346.088 L 89.500 1343.312 85.793 1339.201 L 82.087 1335.090 80.039 1331.077 L 77.991 1327.063 76.511 1320.781 L 75.030 1314.500 75.015 1304.460 L 75 1294.420 76.533 1288.535 L 78.066 1282.650 80.783 1277.652 L 83.500 1272.655 88.230 1268.915 L 92.959 1265.174 98.230 1263.378 L 103.500 1261.582 111.500 1261.546 L 119.500 1261.509 125.230 1264.318 L 130.959 1267.127 133.970 1270.780 L 136.981 1274.432 138.740 1278.712 L 140.500 1282.993 141.640 1282.996 L 142.780 1283 152.640 1281.008 L 162.500 1279.016 164.670 1278.509 L 166.839 1278.002 165.822 1274.251 L 164.804 1270.500 161.265 1263.725 L 157.726 1256.950 152.552 1252.225 L 147.378 1247.500 141.750 1244.749 L 136.122 1241.998 128.996 1240.499 L 121.869 1239 111.185 1239.079 L 100.500 1239.159 94 1240.554 M 1188 1240.560 L 1181.500 1241.961 1174.392 1245.465 L 1167.284 1248.969 1160.215 1256.410 L 1153.146 1263.852 1149.646 1271.176 L 1146.146 1278.500 1144.573 1286.208 L 1143 1293.916 1143.017 1306.208 L 1143.035 1318.500 1144.499 1325.500 L 1145.964 1332.500 1149.925 1340.500 L 1153.885 1348.500 1158.855 1353.681 L 1163.824 1358.863 1169.282 1362.487 L 1174.740 1366.111 1182.120 1368.666 L 1189.500 1371.221 1201.617 1371.740 L 1213.735 1372.260 1221.371 1370.561 L 1229.007 1368.862 1236.254 1365.255 L 1243.500 1361.648 1250.084 1355.074 L 1256.668 1348.500 1260.324 1341 L 1263.980 1333.500 1265.737 1327 L 1267.495 1320.500 1267.467 1305.500 L 1267.439 1290.500 1265.709 1284 L 1263.980 1277.500 1260.348 1270.074 L 1256.717 1262.648 1250.034 1255.966 L 1243.352 1249.283 1235.926 1245.629 L 1228.500 1241.974 1221.500 1240.504 L 1214.500 1239.035 1204.500 1239.097 L 1194.500 1239.159 1188 1240.560 M 268 1305.427 L 268 1370 281 1370 L 294 1370 294 1342.851 L 294 1315.703 302.590 1316.309 L 311.180 1316.915 315.595 1319.503 L 320.011 1322.091 327.255 1332.348 L 334.500 1342.605 343.500 1356.282 L 352.500 1369.959 368.285 1369.980 L 384.070 1370 382.936 1367.881 L 381.802 1365.761 371.320 1349.131 L 360.838 1332.500 356.669 1327.071 L 352.500 1321.642 346.650 1317.328 L 340.799 1313.014 342.150 1312.635 L 343.500 1312.256 349.070 1310.634 L 354.640 1309.011 359.225 1305.974 L 363.811 1302.937 366.469 1299.452 L 369.127 1295.967 371.240 1291.233 L 373.353 1286.500 373.398 1278 L 373.443 1269.500 372.208 1265.343 L 370.973 1261.185 367.736 1256.376 L 364.500 1251.567 360.206 1248.309 L 355.912 1245.051 350.706 1243.337 L 345.500 1241.622 306.750 1241.238 L 268 1240.855 268 1305.427 M 483 1241.438 L 483 1241.877 506.500 1279.042 L 530 1316.208 530 1343.104 L 530 1370 543 1370 L 556 1370 556 1343.048 L 556 1316.096 579.500 1278.979 L 603 1241.861 603 1241.405 L 603 1240.948 587.870 1241.224 L 572.740 1241.500 558.601 1265.686 L 544.461 1289.872 543.858 1290.475 L 543.255 1291.079 528.404 1266.039 L 513.553 1241 498.277 1241 L 483 1241 483 1241.438 M 713 1305.500 L 713 1370 726 1370 L 739 1370 739 1345.500 L 739 1321 755.750 1320.980 L 772.500 1320.960 778.925 1320.031 L 785.349 1319.103 791.610 1316.021 L 797.870 1312.939 802.381 1307.921 L 806.892 1302.903 809.176 1297.202 L 811.459 1291.500 811.422 1280.500 L 811.386 1269.500 809.139 1263.798 L 806.892 1258.097 802.545 1253.261 L 798.197 1248.425 793.318 1245.770 L 788.440 1243.114 781.970 1242.065 L 775.500 1241.015 744.250 1241.008 L 713 1241 713 1305.500 M 931 1305.500 L 931 1370 944 1370 L 957 1370 957 1342 L 957 1314 982.500 1314 L 1008 1314 1008 1342 L 1008 1370 1021 1370 L 1034 1370 1034 1305.500 L 1034 1241 1021 1241 L 1008 1241 1008 1266.500 L 1008 1292 982.500 1292 L 957 1292 957 1266.500 L 957 1241 944 1241 L 931 1241 931 1305.500 M 1375 1305.471 L 1375 1370 1387.500 1370 L 1400 1370 1400 1328.842 L 1400 1287.683 1425.595 1328.842 L 1451.190 1370 1464.595 1370 L 1478 1370 1478 1305.500 L 1478 1241 1465.511 1241 L 1453.022 1241 1452.761 1282.449 L 1452.500 1323.899 1426.883 1282.699 L 1401.267 1241.500 1388.133 1241.221 L 1375 1240.942 1375 1305.471 M 1196.500 1262.338 L 1191.500 1263.628 1189 1264.970 L 1186.500 1266.312 1183.360 1268.691 L 1180.219 1271.070 1177.513 1275.160 L 1174.806 1279.250 1172.824 1284.875 L 1170.843 1290.500 1170.287 1300.568 L 1169.731 1310.636 1170.899 1317.568 L 1172.067 1324.500 1175.064 1330.685 L 1178.061 1336.870 1183.060 1341.364 L 1188.060 1345.859 1193.280 1347.665 L 1198.500 1349.471 1206 1349.444 L 1213.500 1349.416 1219.046 1346.857 L 1224.591 1344.298 1228.138 1341.184 L 1231.684 1338.070 1234.721 1332.285 L 1237.757 1326.500 1238.833 1321.500 L 1239.909 1316.500 1240.520 1310.500 L 1241.132 1304.500 1240.115 1296.419 L 1239.099 1288.338 1236.925 1282.419 L 1234.751 1276.500 1229.081 1270.914 L 1223.411 1265.328 1218.455 1263.620 L 1213.500 1261.913 1207.500 1261.480 L 1201.500 1261.047 1196.500 1262.338 M 294 1278.542 L 294 1294.286 314.313 1293.779 L 334.626 1293.271 338.431 1291.466 L 342.236 1289.660 344.114 1286.580 L 345.993 1283.500 345.996 1277.885 L 346 1272.270 343.912 1269.615 L 341.823 1266.960 338.662 1265.259 L 335.500 1263.559 314.750 1263.178 L 294 1262.798 294 1278.542 M 739 1281.009 L 739 1299.301 754.548 1298.734 L 770.095 1298.166 774.796 1295.833 L 779.497 1293.500 781.724 1290.138 L 783.951 1286.776 784.557 1283.547 L 785.163 1280.318 784.079 1276.293 L 782.995 1272.268 780.248 1269.494 L 777.500 1266.720 774 1265.231 L 770.500 1263.741 754.750 1263.229 L 739 1262.716 739 1281.009" stroke="none" fill="#050404" fill-rule="evenodd"/></svg>